<?xml version="1.0" standalone="no"?>
<!DOCTYPE svg PUBLIC "-//W3C//DTD SVG 20010904//EN"
 "http://www.w3.org/TR/2001/REC-SVG-20010904/DTD/svg10.dtd">
<svg version="1.0" xmlns="http://www.w3.org/2000/svg"
 width="635.000000pt" height="635.000000pt" viewBox="0 0 635.000000 635.000000"
 preserveAspectRatio="xMidYMid meet">
<metadata>
Created by potrace 1.11, written by Peter Selinger 2001-2013
</metadata>
<g transform="translate(0.000000,635.000000) scale(0.100000,-0.100000)"
fill="#000000" stroke="none">
<path d="M2827 5144 c-1 -1 -128 -5 -282 -8 -154 -4 -298 -9 -320 -10 -22 -2
-87 -7 -145 -11 -58 -3 -123 -8 -145 -10 -22 -2 -69 -7 -105 -10 -36 -3 -76
-8 -90 -10 -14 -2 -52 -7 -85 -10 -33 -3 -85 -10 -115 -15 -30 -5 -73 -12 -95
-15 -22 -3 -55 -8 -73 -11 -57 -8 -324 -64 -427 -90 -242 -61 -615 -194 -739
-264 -63 -36 -135 -112 -137 -144 -1 -12 -2 -33 -3 -48 0 -14 -4 -30 -9 -34
-15 -16 -5 -55 44 -175 144 -354 312 -674 502 -959 171 -255 404 -568 545
-730 189 -216 393 -366 619 -451 l61 -23 5 -51 c2 -27 12 -90 21 -140 9 -49
18 -106 21 -125 19 -163 80 -249 194 -276 25 -6 145 -37 266 -69 121 -31 227
-59 235 -60 232 -50 228 -50 555 -50 276 0 356 4 425 19 231 50 424 122 503
187 47 39 57 86 57 266 0 209 2 215 58 236 85 32 290 138 343 178 95 71 205
185 354 369 42 52 84 104 93 115 27 32 244 314 293 380 24 33 48 64 52 70 5 5
45 62 89 125 222 319 346 576 512 1062 l26 77 -37 72 c-77 149 -268 296 -507
390 -80 32 -300 86 -476 118 -253 45 -305 51 -660 67 -80 3 -156 7 -170 8 -14
2 -79 6 -145 11 -66 4 -128 9 -137 11 -9 1 -59 5 -110 9 -51 3 -120 8 -153 10
-104 8 -703 23 -708 19z m486 -113 c79 -1 107 -15 38 -19 -21 -2 -48 -4 -59
-7 -118 -22 -382 -22 -450 1 -8 2 -53 7 -100 10 -182 13 -102 20 190 18 167
-1 338 -2 381 -3z m-1413 -43 c0 -4 -10 -9 -22 -9 -13 -1 -32 -3 -43 -5 -11
-2 -38 -6 -60 -9 -22 -3 -85 -13 -140 -21 -55 -8 -120 -17 -145 -20 -25 -2
-58 -6 -75 -9 -16 -2 -61 -6 -100 -9 -69 -5 -68 -5 30 14 55 11 123 22 150 25
28 3 57 8 65 10 8 2 38 6 65 10 28 3 64 8 80 10 17 2 57 7 90 10 33 3 60 7 62
8 6 7 43 2 43 -5z m63 5 c-7 -2 -19 -2 -25 0 -7 3 -2 5 12 5 14 0 19 -2 13 -5z
m3365 -195 c52 -18 90 -34 83 -36 -13 -4 -134 33 -171 53 -40 23 -14 17 88
-17z m-4983 -179 c-4 -6 -38 -30 -76 -55 -39 -24 -72 -51 -75 -59 -7 -19 -24
-20 -24 -2 0 20 51 65 111 97 59 31 74 36 64 19z m43 -386 c39 -21 72 -40 72
-44 0 -7 -73 5 -104 17 -11 4 -42 22 -70 41 -28 18 -55 33 -61 33 -6 0 -16 14
-22 30 l-11 30 61 -35 c34 -20 95 -52 135 -72z m5317 -120 c-117 -314 -234
-530 -444 -821 -53 -74 -103 -144 -111 -156 -19 -28 -310 -400 -344 -441 -25
-29 -26 -30 -32 -8 -8 28 -31 33 -67 16 -26 -13 -30 -12 -69 21 -22 19 -54 38
-72 42 -53 11 -83 35 -106 84 -13 27 -35 54 -53 65 -44 26 -73 62 -98 123 -12
28 -25 52 -29 52 -4 0 -22 25 -41 55 -24 40 -43 58 -71 70 -21 8 -38 17 -38
19 0 12 71 46 94 46 43 0 75 23 173 122 50 51 108 109 129 128 21 19 57 65 80
101 23 36 71 103 106 150 35 47 72 103 83 125 25 49 27 50 89 58 91 12 389 74
481 101 110 31 253 87 320 124 28 15 52 26 53 25 2 -1 -13 -47 -33 -101z
m-5046 17 c102 -40 304 -93 480 -125 56 -10 248 -44 281 -50 19 -3 42 -8 50
-10 8 -2 37 -7 64 -10 27 -3 51 -7 55 -9 3 -2 29 -6 56 -10 28 -3 61 -8 75
-10 14 -3 75 -12 135 -21 61 -9 121 -18 135 -20 24 -3 88 -11 160 -19 19 -2
71 -7 115 -11 44 -4 87 -9 96 -10 14 -3 109 -8 326 -19 18 -1 43 -12 56 -24
13 -12 31 -22 39 -22 9 0 19 -9 23 -19 9 -28 326 -346 365 -366 17 -9 38 -14
45 -11 8 3 25 -4 40 -15 l25 -21 -29 -56 c-16 -32 -32 -64 -34 -73 -3 -8 -23
-21 -46 -27 -23 -7 -48 -24 -58 -38 -10 -14 -51 -59 -90 -99 -40 -40 -73 -77
-73 -83 0 -5 -13 -12 -29 -15 -17 -4 -64 -39 -115 -86 -60 -55 -110 -92 -160
-116 -40 -19 -81 -44 -92 -56 -10 -11 -34 -27 -54 -35 -19 -8 -60 -39 -90 -68
-76 -73 -182 -115 -301 -120 -47 -2 -91 -6 -98 -10 -21 -13 -131 -15 -144 -2
-7 6 -35 29 -62 50 -68 54 -293 287 -421 436 -21 25 -89 97 -150 160 -62 63
-127 131 -144 150 -54 61 -273 403 -307 480 -6 14 -31 69 -57 122 -25 53 -46
100 -46 103 0 11 -91 149 -116 176 l-25 26 36 1 c20 1 57 -7 84 -18z m4045
-219 c-10 -14 -42 -60 -73 -101 -31 -41 -68 -93 -81 -115 -14 -22 -31 -48 -40
-59 -11 -13 -188 -190 -264 -264 -2 -2 -16 -5 -32 -8 -16 -3 -38 -7 -49 -11
-21 -6 -105 -62 -116 -76 -4 -5 -28 7 -53 27 -26 20 -53 36 -59 36 -49 0 -90
24 -129 76 -28 37 -58 64 -92 81 -28 14 -60 35 -71 48 -11 12 -58 49 -105 81
l-85 60 -6 64 c-3 36 -4 67 -3 68 3 4 49 8 204 17 63 3 138 8 165 10 28 2 91
7 140 10 50 3 101 8 115 10 14 2 60 6 102 10 42 3 94 8 115 10 21 3 61 7 88
10 65 8 116 14 163 20 20 2 62 7 92 10 30 4 56 8 58 9 1 2 9 3 17 3 13 0 13
-4 -1 -26z m-1339 -136 c4 -24 4 -49 0 -55 -4 -6 -9 -48 -11 -93 -2 -47 -13
-108 -26 -143 l-21 -62 -35 15 c-19 8 -41 12 -50 8 -10 -4 -57 36 -147 127
-72 73 -143 143 -156 154 -13 12 -32 35 -41 51 l-17 29 157 3 c86 1 157 3 158
4 2 1 43 3 93 4 l90 2 6 -44z m85 -208 c0 -16 21 -37 72 -74 39 -29 80 -53 90
-53 10 0 34 -18 54 -39 20 -22 54 -58 75 -82 45 -47 99 -114 99 -121 0 -3 -35
-5 -77 -6 -43 0 -89 -4 -103 -10 -26 -10 -44 -9 -165 3 -49 5 -86 2 -125 -8
-75 -20 -83 -10 -43 62 18 32 41 89 52 127 11 38 27 89 36 112 8 24 16 61 18
82 2 40 17 46 17 7z m741 -495 c20 -31 44 -73 52 -92 17 -41 90 -126 115 -134
13 -4 69 -100 59 -101 -1 0 -67 -33 -147 -73 -80 -40 -151 -73 -158 -72 -7 0
-38 -13 -70 -29 -55 -28 -83 -35 -187 -47 -65 -7 -108 -21 -175 -56 l-55 -28
-60 15 c-33 9 -85 18 -115 20 -30 2 -73 9 -95 14 -22 6 -85 15 -140 22 -55 6
-163 29 -239 51 -76 22 -147 41 -157 43 -10 2 -39 13 -65 24 -26 12 -56 21
-68 21 -14 1 -3 10 34 30 30 16 87 58 125 95 39 37 88 75 111 85 22 10 56 37
75 61 18 24 43 51 54 59 30 21 70 62 82 84 8 15 14 16 29 8 13 -7 26 -7 44 3
14 7 42 11 64 10 21 -1 63 4 94 12 45 12 66 12 123 2 55 -10 86 -10 152 0 89
14 283 10 312 -6 21 -12 74 -2 106 21 41 28 61 19 100 -42z m329 -377 c23 -8
60 -31 81 -50 32 -29 47 -35 82 -35 24 0 49 6 57 13 36 31 -92 -117 -164 -191
-110 -113 -206 -176 -397 -261 -52 -23 -173 -57 -234 -66 -22 -3 -47 -7 -55
-10 -108 -29 -846 -36 -1110 -10 -25 2 -85 7 -135 10 -49 3 -106 8 -125 10
-19 2 -62 7 -95 10 -230 23 -282 34 -311 68 -55 65 -134 167 -134 173 0 4 3 5
6 1 3 -3 17 -1 31 4 13 5 61 11 106 13 132 7 273 64 344 138 47 51 118 85 130
63 10 -17 32 -21 61 -11 16 5 37 1 65 -12 23 -11 58 -23 77 -27 19 -4 84 -23
144 -41 95 -29 207 -51 354 -68 24 -3 46 -8 50 -10 4 -2 39 -7 77 -11 39 -3
94 -13 124 -22 67 -19 121 -11 181 26 45 29 72 36 165 46 79 9 106 16 172 46
34 16 75 31 90 35 15 4 48 19 74 34 25 15 56 31 69 35 12 4 44 20 70 35 26 15
56 31 68 34 12 4 24 16 27 27 8 23 3 22 55 4z m-3140 -184 c25 -25 34 -36 20
-25 -34 26 -110 101 -85 83 11 -8 40 -34 65 -58z m695 -456 c6 -2 -20 -3 -58
-2 -37 1 -67 -1 -67 -5 0 -3 16 -53 35 -110 37 -111 85 -290 79 -297 -7 -8
-47 35 -60 64 -7 17 -20 80 -29 140 -9 61 -20 128 -25 150 -5 22 -11 52 -13
66 l-5 26 66 -14 c37 -7 72 -15 77 -18z m268 -42 c-7 -2 -19 -2 -25 0 -7 3 -2
5 12 5 14 0 19 -2 13 -5z m68 -11 c-18 -2 -37 0 -42 5 -5 5 11 6 34 3 41 -4
41 -5 8 -8z m1592 -175 c-2 -110 -7 -185 -13 -192 -31 -37 -273 -128 -423
-159 -95 -20 -154 -26 -304 -30 l-119 -4 3 134 c1 74 -2 134 -7 134 -5 0 -7
-10 -5 -22 4 -21 3 -22 -9 -5 -12 15 -12 27 1 73 17 68 57 159 72 169 9 5 9
10 0 21 -10 12 14 14 162 15 96 0 201 2 234 4 120 7 241 15 260 19 11 2 42 7
70 10 27 4 51 8 52 10 2 1 9 3 16 3 10 0 12 -39 10 -180z m-983 136 c7 -7
-182 0 -215 8 -16 4 24 5 90 2 66 -3 122 -7 125 -10z"/>
</g>
</svg>
